<?xml version="1.0" encoding="UTF-8" standalone="no"?>
<!-- Created with Inkscape (http://www.inkscape.org/) -->

<svg
   xmlns:dc="http://purl.org/dc/elements/1.1/"
   xmlns:cc="http://creativecommons.org/ns#"
   xmlns:rdf="http://www.w3.org/1999/02/22-rdf-syntax-ns#"
   xmlns:svg="http://www.w3.org/2000/svg"
   xmlns="http://www.w3.org/2000/svg"
   xmlns:sodipodi="http://sodipodi.sourceforge.net/DTD/sodipodi-0.dtd"
   xmlns:inkscape="http://www.inkscape.org/namespaces/inkscape"
   width="128"
   height="128"
   viewBox="0 0 33.866666 33.866666"
   version="1.1"
   id="svg8"
   inkscape:version="0.92.4 (5da689c313, 2019-01-14)"
   sodipodi:docname="home.svg">
  <defs
     id="defs2" />
  <sodipodi:namedview
     id="base"
     pagecolor="#ffffff"
     bordercolor="#666666"
     borderopacity="1.0"
     inkscape:pageopacity="0.0"
     inkscape:pageshadow="2"
     inkscape:zoom="4"
     inkscape:cx="89.167646"
     inkscape:cy="39.52547"
     inkscape:document-units="mm"
     inkscape:current-layer="layer1"
     showgrid="true"
     units="px"
     inkscape:snap-smooth-nodes="true"
     inkscape:window-width="1366"
     inkscape:window-height="745"
     inkscape:window-x="-8"
     inkscape:window-y="-8"
     inkscape:window-maximized="1">
    <inkscape:grid
       type="xygrid"
       id="grid815"
       empspacing="8"
       spacingx="0.26458333"
       spacingy="0.26458333" />
  </sodipodi:namedview>
  <metadata
     id="metadata5">
    <rdf:RDF>
      <cc:Work
         rdf:about="">
        <dc:format>image/svg+xml</dc:format>
        <dc:type
           rdf:resource="http://purl.org/dc/dcmitype/StillImage" />
        <dc:title></dc:title>
      </cc:Work>
    </rdf:RDF>
  </metadata>
  <g
     inkscape:label="Camada 1"
     inkscape:groupmode="layer"
     id="layer1"
     transform="translate(0,-263.13334)">
    <path
       style="opacity:1;fill:#000000;fill-opacity:1;fill-rule:nonzero;stroke:none;stroke-width:7.15541744;stroke-linecap:round;stroke-linejoin:round;stroke-miterlimit:10;stroke-dasharray:none;stroke-dashoffset:0;stroke-opacity:1;paint-order:markers fill stroke"
       d="M 63.978516 12 A 4.0004001 4.0004001 0 0 0 61.439453 12.927734 L 13.439453 52.927734 A 4.0004001 4.0004001 0 0 0 16 60 L 28 60 L 28 112 A 4.0004001 4.0004001 0 0 0 32 116 L 96 116 A 4.0004001 4.0004001 0 0 0 100 112 L 100 60 L 112 60 A 4.0004001 4.0004001 0 0 0 114.56055 52.927734 L 66.560547 12.927734 A 4.0004001 4.0004001 0 0 0 63.978516 12 z M 64 21.207031 L 100.95312 52 L 96 52 A 4.0004001 4.0004001 0 0 0 92 56 L 92 108 L 68 108 L 68 85.681641 C 70.388416 82.965445 72.000019 78.739729 72 78 C 71.999943 76.895433 68.418237 76 64 76 C 59.581763 76 56.000057 76.895433 56 78 C 55.999981 78.739729 57.611584 82.965445 60 85.681641 L 60 108 L 36 108 L 36 56 A 4.0004001 4.0004001 0 0 0 32 52 L 27.046875 52 L 64 21.207031 z M 54 52 A 5.9999992 5.9999992 0 0 0 48 58 A 5.9999992 5.9999992 0 0 0 54 64 A 5.9999992 5.9999992 0 0 0 60 58 A 5.9999992 5.9999992 0 0 0 54 52 z M 74 52 A 5.9999992 5.9999992 0 0 0 68 58 A 5.9999992 5.9999992 0 0 0 74 64 A 5.9999992 5.9999992 0 0 0 80 58 A 5.9999992 5.9999992 0 0 0 74 52 z "
       transform="matrix(0.26458333,0,0,0.26458333,0,263.13334)"
       id="path944" />
  </g>
</svg>
