<?xml version="1.0" encoding="UTF-8" standalone="no"?>
<!-- Created with Inkscape (http://www.inkscape.org/) -->

<svg
   xmlns:dc="http://purl.org/dc/elements/1.1/"
   xmlns:cc="http://creativecommons.org/ns#"
   xmlns:rdf="http://www.w3.org/1999/02/22-rdf-syntax-ns#"
   xmlns:svg="http://www.w3.org/2000/svg"
   xmlns="http://www.w3.org/2000/svg"
   xmlns:sodipodi="http://sodipodi.sourceforge.net/DTD/sodipodi-0.dtd"
   xmlns:inkscape="http://www.inkscape.org/namespaces/inkscape"
   width="128"
   height="128"
   viewBox="0 0 33.866666 33.866666"
   version="1.1"
   id="svg8"
   inkscape:version="0.92.4 (5da689c313, 2019-01-14)"
   sodipodi:docname="like.svg">
  <defs
     id="defs2" />
  <sodipodi:namedview
     id="base"
     pagecolor="#ffffff"
     bordercolor="#666666"
     borderopacity="1.0"
     inkscape:pageopacity="0.0"
     inkscape:pageshadow="2"
     inkscape:zoom="3.959798"
     inkscape:cx="59.975475"
     inkscape:cy="52.644591"
     inkscape:document-units="mm"
     inkscape:current-layer="layer1"
     showgrid="true"
     units="px"
     inkscape:snap-smooth-nodes="true"
     inkscape:window-width="1366"
     inkscape:window-height="745"
     inkscape:window-x="-8"
     inkscape:window-y="-8"
     inkscape:window-maximized="1">
    <inkscape:grid
       type="xygrid"
       id="grid815"
       empspacing="4" />
  </sodipodi:namedview>
  <metadata
     id="metadata5">
    <rdf:RDF>
      <cc:Work
         rdf:about="">
        <dc:format>image/svg+xml</dc:format>
        <dc:type
           rdf:resource="http://purl.org/dc/dcmitype/StillImage" />
        <dc:title></dc:title>
      </cc:Work>
    </rdf:RDF>
  </metadata>
  <g
     inkscape:label="Camada 1"
     inkscape:groupmode="layer"
     id="layer1"
     transform="translate(0,-263.13334)">
    <path
       style="color:#000000;font-style:normal;font-variant:normal;font-weight:normal;font-stretch:normal;font-size:medium;line-height:normal;font-family:sans-serif;font-variant-ligatures:normal;font-variant-position:normal;font-variant-caps:normal;font-variant-numeric:normal;font-variant-alternates:normal;font-feature-settings:normal;text-indent:0;text-align:start;text-decoration:none;text-decoration-line:none;text-decoration-style:solid;text-decoration-color:#000000;letter-spacing:normal;word-spacing:normal;text-transform:none;writing-mode:lr-tb;direction:ltr;text-orientation:mixed;dominant-baseline:auto;baseline-shift:baseline;text-anchor:start;white-space:normal;shape-padding:0;clip-rule:nonzero;display:inline;overflow:visible;visibility:visible;opacity:1;isolation:auto;mix-blend-mode:normal;color-interpolation:sRGB;color-interpolation-filters:linearRGB;solid-color:#000000;solid-opacity:1;vector-effect:none;fill:#000000;fill-opacity:1;fill-rule:nonzero;stroke:none;stroke-width:2.11666656;stroke-linecap:round;stroke-linejoin:round;stroke-miterlimit:10;stroke-dasharray:none;stroke-dashoffset:0;stroke-opacity:1;paint-order:markers fill stroke;color-rendering:auto;image-rendering:auto;shape-rendering:auto;text-rendering:auto;enable-background:accumulate"
       d="m 21.644673,265.55231 c -1.762057,-0.0258 -3.411046,0.67085 -4.759916,1.78129 -2.900651,-2.23069 -7.0408501,-2.13641 -9.6950149,0.5178 -2.8843271,2.88428 -2.8843271,7.59208 0,10.47636 l 0.7772135,0.77773 7.4238364,7.42384 a 1.0584391,1.0584391 0 0 0 0,0.002 l 0.468705,0.46767 v 1.66708 0.0419 1.05833 0.0419 c 0,1.47379 -1.172044,2.64583 -2.645833,2.64583 -1.473788,0 -2.645834,-1.17204 -2.645834,-2.64583 v -4.23333 c 4e-6,-0.5845 -0.473828,-1.05834 -1.0583329,-1.05834 -0.584504,0 -1.0583354,0.47384 -1.0583333,1.05834 v 3.13314 1.10019 c 0,2.61772 2.1447802,4.7625 4.7625002,4.7625 1.501457,0 2.844869,-0.70778 3.719669,-1.80351 0.875441,1.07258 2.205795,1.76165 3.688664,1.76165 2.61772,0 4.7625,-2.14478 4.7625,-4.7625 v -1.10019 -3.13314 c 3e-6,-0.5845 -0.473829,-1.05833 -1.058333,-1.05833 -0.584505,0 -1.058338,0.47383 -1.058334,1.05833 v 4.23333 c 0,1.47379 -1.172044,2.64584 -2.645833,2.64584 -1.473789,0 -2.645833,-1.17205 -2.645833,-2.64584 v -1.05833 -1.70894 l 0.596346,-0.59635 7.423836,-7.42383 0.650089,-0.65061 0.129191,-0.12867 c 2.884328,-2.88428 2.884328,-7.59209 0,-10.47637 -1.362728,-1.36249 -3.204135,-2.14195 -5.130953,-2.16989 z m -0.03152,2.11719 c 1.376934,0.02 2.690549,0.57561 3.664376,1.54926 2.07543,2.0754 2.07543,5.40889 0,7.48429 l -0.129191,0.12868 -0.648023,0.64854 -7.423836,7.42383 -0.15813,0.15813 -0.03152,-0.0294 -7.4238356,-7.42384 -0.7772136,-0.77721 c -2.07543,-2.0754 -2.07543,-5.4089 0,-7.4843 2.0753962,-2.07543 5.4089012,-2.07543 7.4842972,0 a 1.0584391,1.0584391 0 0 0 1.4981,-0.002 l 0.127124,-0.12712 c 1.011658,-1.01148 2.387429,-1.56968 3.817855,-1.54874 z"
       id="path819"
       inkscape:connector-curvature="0" />
  </g>
</svg>
