<?xml version="1.0" encoding="UTF-8" standalone="no"?>
<!-- Created with Inkscape (http://www.inkscape.org/) -->

<svg
   xmlns:dc="http://purl.org/dc/elements/1.1/"
   xmlns:cc="http://creativecommons.org/ns#"
   xmlns:rdf="http://www.w3.org/1999/02/22-rdf-syntax-ns#"
   xmlns:svg="http://www.w3.org/2000/svg"
   xmlns="http://www.w3.org/2000/svg"
   xmlns:sodipodi="http://sodipodi.sourceforge.net/DTD/sodipodi-0.dtd"
   xmlns:inkscape="http://www.inkscape.org/namespaces/inkscape"
   width="128"
   height="128"
   viewBox="0 0 33.866666 33.866668"
   version="1.1"
   id="svg8"
   inkscape:version="0.92.4 (5da689c313, 2019-01-14)"
   sodipodi:docname="loading.svg">
  <defs
     id="defs2" />
  <sodipodi:namedview
     id="base"
     pagecolor="#ffffff"
     bordercolor="#666666"
     borderopacity="1.0"
     inkscape:pageopacity="0.0"
     inkscape:pageshadow="2"
     inkscape:zoom="5.6"
     inkscape:cx="106.68111"
     inkscape:cy="59.481915"
     inkscape:document-units="mm"
     inkscape:current-layer="layer1"
     showgrid="true"
     units="px"
     showguides="false"
     inkscape:snap-smooth-nodes="false"
     inkscape:object-nodes="true"
     inkscape:snap-midpoints="true"
     inkscape:object-paths="true"
     inkscape:snap-intersection-paths="false"
     inkscape:snap-nodes="true"
     inkscape:window-width="1920"
     inkscape:window-height="1018"
     inkscape:window-x="-8"
     inkscape:window-y="-8"
     inkscape:window-maximized="1">
    <inkscape:grid
       type="xygrid"
       id="grid3713"
       empspacing="8"
       spacingx="0.52916667"
       spacingy="0.52916667" />
  </sodipodi:namedview>
  <metadata
     id="metadata5">
    <rdf:RDF>
      <cc:Work
         rdf:about="">
        <dc:format>image/svg+xml</dc:format>
        <dc:type
           rdf:resource="http://purl.org/dc/dcmitype/StillImage" />
        <dc:title></dc:title>
      </cc:Work>
    </rdf:RDF>
  </metadata>
  <g
     inkscape:label="Camada 1"
     inkscape:groupmode="layer"
     id="layer1"
     transform="translate(0,-263.13332)">
    <path
       id="path4599"
       style="fill:none;fill-opacity:0.5678392;stroke:#ff00ff;stroke-width:2.11666656;stroke-miterlimit:4;stroke-dasharray:none;stroke-opacity:0.56565653"
       d="m 25.718249,288.14777 c -1.504818,-2.0139 -3.512906,-2.22108 -4.559338,-2.25368 -1.586731,-0.0494 -2.108909,-0.007 -4.225576,-0.007 -3.175,0 -5.820832,-2.60608 -5.820834,-5.82084 2e-6,-3.21476 2.606077,-5.82083 5.820833,-5.82083 2.116668,0 2.646604,0.0494 4.233335,0 1.046432,-0.0326 3.05452,-0.23978 4.559338,-2.25368 m 3.907327,8.07491 a 12.7,12.7 0 0 1 -12.7,12.7 12.7,12.7 0 0 1 -12.7000014,-12.7 12.7,12.7 0 0 1 12.7000014,-12.7 12.7,12.7 0 0 1 12.7,12.7 z"
       inkscape:connector-curvature="0" />
  </g>
</svg>
